<svg width="178" height="325" viewBox="0 0 178 325" fill="none" xmlns="http://www.w3.org/2000/svg"><path d="M3.63264 11.6071L169.282 0C170.735 12.5744 172.188 25.6325 173.641 39.1741C174.61 50.7813 175.578 64.0811 176.547 79.0737C177.516 94.0662 178 109.301 178 124.777C178 177.009 165.891 219.085 141.673 251.004C116.971 283.408 76.5279 308.073 20.3428 325L0 266.964C16.9524 264.546 31.9673 259.71 45.0449 252.455C57.6381 245.685 68.0517 237.221 76.2857 227.065C84.5197 217.392 90.8163 206.752 95.1755 195.145C99.0503 183.538 100.988 171.931 100.988 160.324L3.63264 160.324V11.6071Z" fill="#C94455" /></svg>